<?xml version="1.0" standalone="no"?>
<!DOCTYPE svg PUBLIC "-//W3C//DTD SVG 20010904//EN"
 "http://www.w3.org/TR/2001/REC-SVG-20010904/DTD/svg10.dtd">
<svg version="1.0" xmlns="http://www.w3.org/2000/svg"
 width="180.000000pt" height="180.000000pt" viewBox="0 0 180.000000 180.000000"
 preserveAspectRatio="xMidYMid meet">

<g transform="translate(0.000000,180.000000) scale(0.100000,-0.100000)"
fill="#000000" stroke="none">
<path d="M0 1438 l1 -363 22 65 c50 147 166 299 304 396 80 58 207 117 313
145 72 20 109 23 250 23 141 0 178 -3 250 -23 180 -48 325 -135 451 -269 91
-97 151 -207 184 -334 l23 -93 1 408 1 407 -900 0 -900 0 0 -362z"/>
<path d="M587 993 c-4 -3 -7 -51 -7 -105 l0 -98 110 0 110 0 0 105 0 105 -103
0 c-57 0 -107 -3 -110 -7z m147 -39 c11 -10 16 -34 16 -75 0 -52 -2 -59 -20
-59 -15 0 -20 7 -20 25 0 16 -6 25 -15 25 -9 0 -15 -9 -15 -25 0 -16 -6 -25
-15 -25 -12 0 -15 14 -15 69 0 46 4 71 13 74 25 11 56 7 71 -9z"/>
<path d="M680 915 c0 -16 6 -25 15 -25 9 0 15 9 15 25 0 16 -6 25 -15 25 -9 0
-15 -9 -15 -25z"/>
<path d="M858 993 c17 -2 47 -2 65 0 17 2 3 4 -33 4 -36 0 -50 -2 -32 -4z"/>
<path d="M1018 993 c23 -4 23 -7 20 -108 -2 -57 1 -101 5 -96 4 4 6 52 5 107
-3 98 -3 99 -28 101 -23 1 -23 1 -2 -4z"/>
<path d="M230 900 c0 -94 18 -108 22 -17 l3 62 24 -63 c13 -34 29 -61 35 -59
6 2 20 26 31 55 29 73 35 73 35 4 0 -35 4 -62 10 -62 6 0 10 33 10 80 0 65 -3
80 -15 80 -9 0 -24 -20 -36 -47 -10 -27 -23 -57 -27 -67 -7 -16 -13 -7 -32 47
-17 49 -28 67 -42 67 -16 0 -18 -9 -18 -80z"/>
<path d="M1110 900 c0 -97 18 -107 22 -12 l3 67 25 -64 c14 -36 30 -66 36 -68
6 -2 22 25 35 59 l24 63 3 -62 c4 -92 22 -77 22 18 0 69 -2 80 -17 77 -9 -2
-25 -27 -37 -60 -12 -31 -24 -59 -27 -62 -2 -3 -15 24 -28 60 -17 48 -27 64
-42 64 -17 0 -19 -8 -19 -80z"/>
<path d="M927 963 c-4 -3 -7 -37 -7 -75 0 -54 3 -68 15 -68 12 0 15 15 15 75
0 69 -6 86 -23 68z"/>
<path d="M1460 956 c0 -8 -6 -17 -12 -20 -10 -5 -10 -7 0 -12 7 -3 12 -24 12
-50 0 -31 5 -46 15 -51 9 -3 19 -2 23 2 4 4 1 10 -5 12 -8 3 -13 21 -13 43 0
21 6 41 13 44 10 5 10 7 0 12 -7 3 -13 12 -13 20 0 8 -4 14 -10 14 -5 0 -10
-6 -10 -14z"/>
<path d="M447 879 l27 -62 -22 -17 c-22 -19 -20 -32 4 -23 25 9 96 169 72 161
-7 -3 -20 -24 -29 -48 l-16 -43 -18 46 c-10 26 -24 47 -31 47 -10 0 -6 -17 13
-61z"/>
<path d="M1322 927 c-18 -21 -3 -28 23 -11 24 15 58 9 52 -10 -2 -6 -17 -13
-33 -14 -36 -5 -54 -19 -54 -43 0 -21 19 -28 75 -27 l40 1 -5 56 -5 56 -41 3
c-26 2 -45 -2 -52 -11z m78 -62 c0 -18 -34 -37 -54 -29 -23 9 -20 23 7 34 33
13 47 12 47 -5z"/>
<path d="M1538 929 c-26 -15 -25 -85 1 -99 28 -15 67 -12 81 5 16 20 5 32 -14
16 -20 -17 -60 -10 -64 12 -3 14 4 17 42 17 38 0 46 3 46 18 0 38 -51 55 -92
31z m72 -29 c0 -6 -16 -10 -35 -10 -38 0 -46 13 -18 29 19 10 53 -2 53 -19z"/>
<path d="M1785 783 c-9 -60 -50 -175 -83 -233 -117 -205 -314 -349 -567 -416
-86 -23 -120 -27 -245 -27 -124 0 -159 4 -245 26 -292 77 -516 266 -612 517
l-32 85 -1 -367 0 -368 900 0 900 0 0 415 c0 228 -2 415 -4 415 -2 0 -7 -21
-11 -47z"/>
<path d="M277 708 c-7 -27 -1 -38 21 -37 15 1 15 2 -1 6 -12 3 -15 11 -11 29
3 13 4 24 1 24 -2 0 -7 -10 -10 -22z"/>
<path d="M540 719 c0 -13 30 -38 45 -38 6 -1 -1 9 -15 20 -16 14 -19 19 -7 15
9 -3 17 -1 17 4 0 6 -9 10 -20 10 -11 0 -20 -5 -20 -11z"/>
<path d="M591 714 c0 -11 3 -14 6 -6 3 7 2 16 -1 19 -3 4 -6 -2 -5 -13z"/>
<path d="M896 715 c-3 -8 -1 -15 4 -15 6 0 10 7 10 15 0 8 -2 15 -4 15 -2 0
-6 -7 -10 -15z"/>
<path d="M937 704 c-3 -16 0 -28 9 -31 20 -7 34 6 34 33 0 34 -36 33 -43 -2z
m33 -14 c0 -5 -7 -10 -16 -10 -8 0 -12 5 -9 10 3 6 10 10 16 10 5 0 9 -4 9
-10z"/>
<path d="M1061 719 c0 -8 5 -23 12 -33 12 -16 13 -16 13 3 0 11 -3 18 -7 15
-4 -2 -10 4 -12 13 -4 14 -5 14 -6 2z"/>
<path d="M1106 715 c-3 -9 -6 -22 -5 -28 0 -7 5 -1 10 12 5 13 8 26 5 28 -2 2
-6 -3 -10 -12z"/>
<path d="M1164 715 c3 -8 0 -14 -6 -12 -6 1 -12 -3 -14 -8 -2 -6 5 -11 16 -11
14 0 20 7 20 23 0 13 -5 23 -11 23 -6 0 -9 -7 -5 -15z"/>
<path d="M1198 707 c-3 -19 -2 -25 4 -19 6 6 8 18 6 28 -3 14 -5 12 -10 -9z"/>
<path d="M320 693 c0 -6 6 -15 13 -19 6 -4 9 -4 5 1 -4 4 -1 13 8 19 13 10 13
12 -5 12 -12 0 -21 -6 -21 -13z"/>
<path d="M366 694 c-3 -8 0 -16 6 -20 7 -5 8 -2 3 6 -6 10 -4 12 8 7 11 -4 17
-1 17 7 0 17 -28 17 -34 0z"/>
<path d="M410 695 c0 -8 2 -15 4 -15 2 0 6 7 10 15 3 8 1 15 -4 15 -6 0 -10
-7 -10 -15z"/>
<path d="M440 695 c0 -8 2 -15 4 -15 2 0 6 7 10 15 3 8 1 15 -4 15 -6 0 -10
-7 -10 -15z"/>
<path d="M466 693 c-6 -14 -5 -15 5 -6 7 7 10 15 7 18 -3 3 -9 -2 -12 -12z"/>
<path d="M611 694 c0 -11 3 -14 6 -6 3 7 2 16 -1 19 -3 4 -6 -2 -5 -13z"/>
<path d="M646 697 c-11 -8 -15 -17 -10 -20 14 -8 37 8 33 22 -3 8 -10 8 -23
-2z"/>
<path d="M705 702 c-11 -12 -4 -21 12 -15 12 5 14 3 8 -7 -5 -9 -4 -11 3 -6
17 10 15 33 -3 33 -8 0 -17 -3 -20 -5z"/>
<path d="M776 694 c-3 -8 0 -16 6 -20 7 -5 8 -2 3 6 -6 10 -4 12 8 7 11 -4 17
-1 17 7 0 17 -28 17 -34 0z"/>
<path d="M820 695 c0 -8 2 -15 4 -15 2 0 6 7 10 15 3 8 1 15 -4 15 -6 0 -10
-7 -10 -15z"/>
<path d="M850 700 c0 -4 6 -12 13 -18 10 -8 13 -6 13 7 0 10 -6 18 -13 18 -7
0 -13 -4 -13 -7z"/>
<path d="M991 694 c0 -11 3 -14 6 -6 3 7 2 16 -1 19 -3 4 -6 -2 -5 -13z"/>
<path d="M1018 699 c-4 -11 1 -15 17 -15 15 0 21 5 18 14 -4 10 -8 11 -13 2
-6 -9 -9 -9 -12 1 -3 10 -6 9 -10 -2z"/>
</g>
</svg>
