<?xml version="1.0" standalone="no"?>
<!DOCTYPE svg PUBLIC "-//W3C//DTD SVG 20010904//EN"
 "http://www.w3.org/TR/2001/REC-SVG-20010904/DTD/svg10.dtd">
<svg version="1.0" xmlns="http://www.w3.org/2000/svg"
 width="180.000000pt" height="180.000000pt" viewBox="0 0 180.000000 180.000000"
 preserveAspectRatio="xMidYMid meet">
<metadata>
Created by potrace 1.15, written by Peter Selinger 2001-2017
</metadata>
<g transform="translate(0.000000,180.000000) scale(0.100000,-0.100000)"
fill="#000000" stroke="none">
<path d="M1220 1405 c0 -10 -11 -15 -35 -15 -28 0 -35 -4 -35 -20 0 -11 -4
-20 -10 -20 -5 0 -10 5 -10 10 0 6 -11 10 -25 10 -14 0 -25 -4 -25 -10 0 -5
-9 -10 -20 -10 -11 0 -20 -4 -20 -10 0 -5 -11 -10 -25 -10 -16 0 -25 -6 -25
-15 0 -8 -4 -15 -10 -15 -5 0 -10 7 -10 15 0 8 -4 15 -10 15 -5 0 -10 -7 -10
-15 0 -11 -12 -15 -45 -15 -25 0 -45 -4 -45 -10 0 -5 -20 -10 -45 -10 -25 0
-45 -4 -45 -10 0 -5 -14 -10 -31 -10 -30 0 -59 -19 -59 -39 0 -6 -9 -11 -21
-11 -12 0 -34 -13 -49 -30 -15 -16 -33 -30 -39 -30 -6 0 -11 -10 -11 -23 0
-12 -9 -29 -20 -37 -11 -8 -20 -25 -20 -37 0 -13 -4 -23 -10 -23 -5 0 -10 -20
-10 -45 0 -33 -4 -45 -15 -45 -12 0 -15 -14 -15 -65 0 -51 3 -65 15 -65 11 0
15 -12 15 -45 0 -25 5 -45 10 -45 6 0 10 -25 10 -55 0 -30 5 -55 10 -55 6 0
10 -11 10 -25 0 -22 4 -25 35 -25 19 0 35 -5 35 -11 0 -8 -16 -10 -47 -7 -27
3 -42 3 -35 1 6 -3 12 -16 12 -29 0 -18 5 -24 21 -24 11 0 27 -7 35 -15 14
-13 14 -17 0 -30 -8 -8 -19 -15 -25 -15 -6 0 -11 -7 -11 -15 0 -9 9 -15 25
-15 16 0 25 6 25 15 0 8 5 15 10 15 6 0 10 9 10 20 0 17 7 20 45 20 25 0 45
-4 45 -10 0 -5 -4 -10 -10 -10 -5 0 -10 -11 -10 -25 0 -14 5 -25 10 -25 6 0
10 7 10 15 0 8 5 15 10 15 6 0 10 20 10 45 0 33 4 45 15 45 10 0 15 -11 15
-35 0 -32 2 -35 30 -35 17 0 30 5 30 10 0 6 42 10 105 10 63 0 105 4 105 10 0
6 9 10 20 10 11 0 20 7 20 15 0 8 9 15 20 15 21 0 90 61 90 80 0 5 5 10 10 10
17 0 55 43 58 65 2 11 8 22 13 23 5 2 9 17 9 33 0 19 5 29 15 29 13 0 15 22
15 135 0 113 -2 135 -15 135 -9 0 -15 9 -15 25 0 16 6 25 15 25 10 0 15 10 15
34 0 19 6 37 13 40 6 3 0 3 -15 0 -17 -4 -28 -2 -28 5 0 6 7 11 15 11 8 0 15
5 15 10 0 6 -7 10 -15 10 -9 0 -15 9 -15 25 0 16 6 25 15 25 8 0 15 7 15 16 0
8 5 12 10 9 6 -3 10 -3 10 0 0 10 -28 35 -39 35 -6 0 -11 7 -11 15 0 8 7 15
15 15 8 0 15 5 15 11 0 6 -7 9 -15 5 -11 -4 -15 1 -15 19 0 14 -4 25 -10 25
-5 0 -10 7 -10 15 0 8 -9 15 -20 15 -11 0 -20 -7 -20 -15z m-210 -225 c0 -5
11 -10 25 -10 14 0 25 -4 25 -10 0 -5 9 -10 20 -10 11 0 20 -7 20 -15 0 -8 5
-15 10 -15 19 0 60 -48 60 -70 0 -11 5 -20 10 -20 6 0 10 -9 10 -20 0 -11 7
-20 15 -20 12 0 15 -13 15 -55 0 -42 -3 -55 -15 -55 -10 0 -15 -11 -15 -35 0
-19 -4 -35 -10 -35 -5 0 -10 -11 -10 -25 0 -14 -4 -25 -10 -25 -5 0 -10 -13
-10 -30 0 -16 -4 -30 -10 -30 -5 0 -10 -11 -10 -25 0 -16 -6 -25 -15 -25 -8 0
-15 -9 -15 -20 0 -13 -7 -20 -20 -20 -11 0 -20 -7 -20 -15 0 -9 -9 -15 -25
-15 -14 0 -25 -4 -25 -10 0 -5 -25 -10 -55 -10 -30 0 -55 5 -55 10 0 6 5 10
10 10 6 0 10 16 10 35 0 19 -3 35 -6 35 -12 0 -34 -29 -34 -45 0 -9 -6 -23
-14 -31 -16 -16 -76 -19 -76 -4 0 6 -11 10 -25 10 -16 0 -25 6 -25 15 0 8 -8
15 -18 15 -10 0 -24 9 -32 20 -8 11 -18 20 -23 20 -16 0 -37 28 -37 49 0 12
-4 21 -10 21 -5 0 -10 9 -10 20 0 11 5 20 10 20 6 0 10 5 10 11 0 14 25 39 39
39 6 0 11 -4 11 -10 0 -5 9 -10 20 -10 11 0 20 -7 20 -15 0 -10 11 -15 35 -15
24 0 35 5 35 15 0 12 17 15 90 15 89 0 90 0 90 -25 0 -14 -4 -25 -10 -25 -5 0
-10 -9 -10 -20 0 -11 -7 -20 -15 -20 -8 0 -15 -7 -15 -15 0 -8 -6 -15 -12 -15
-9 0 -8 -4 2 -10 26 -17 40 -11 40 15 0 14 5 25 10 25 6 0 10 9 10 20 0 11 5
20 10 20 6 0 10 11 10 25 0 20 5 25 25 25 16 0 25 -6 25 -15 0 -8 9 -15 20
-15 11 0 20 7 20 15 0 9 9 15 21 15 36 0 49 24 49 89 0 34 -4 61 -10 61 -5 0
-10 7 -10 15 0 8 -7 15 -15 15 -8 0 -15 5 -15 10 0 6 -25 10 -55 10 -30 0 -55
-4 -55 -10 0 -5 -25 -10 -55 -10 -30 0 -55 5 -55 10 0 6 5 10 10 10 6 0 10 9
10 20 0 11 5 20 10 20 6 0 10 7 10 15 0 8 7 15 15 15 8 0 15 9 15 20 0 11 5
20 10 20 6 0 10 11 10 25 0 14 -4 25 -10 25 -5 0 -10 -7 -10 -15 0 -8 -7 -15
-15 -15 -8 0 -15 -7 -15 -15 0 -8 -4 -15 -10 -15 -5 0 -10 -7 -10 -15 0 -8 -4
-15 -10 -15 -5 0 -10 -7 -10 -15 0 -8 -4 -15 -10 -15 -5 0 -10 -13 -10 -30 0
-25 -4 -30 -25 -30 -14 0 -25 5 -25 10 0 6 -9 10 -20 10 -11 0 -20 5 -20 10 0
6 5 10 10 10 6 0 10 10 10 23 0 12 9 29 20 37 11 8 20 22 20 32 0 20 26 25 32
6 3 -9 9 -8 21 4 9 9 17 19 17 23 0 10 28 35 39 35 6 0 11 5 11 10 0 6 14 10
30 10 17 0 30 -4 30 -10z m-220 -20 c0 -5 -4 -10 -10 -10 -5 0 -10 -7 -10 -15
0 -8 -7 -15 -15 -15 -8 0 -15 -8 -15 -18 0 -10 -9 -24 -20 -32 -11 -8 -20 -25
-20 -37 0 -13 -4 -23 -10 -23 -5 0 -10 -9 -10 -20 0 -11 -7 -20 -15 -20 -8 0
-15 -7 -15 -15 0 -8 -4 -15 -10 -15 -5 0 -10 -9 -10 -20 0 -11 -4 -20 -10 -20
-5 0 -10 -11 -10 -25 0 -14 -4 -25 -10 -25 -6 0 -10 30 -10 70 0 40 4 70 10
70 6 0 10 9 10 20 0 11 5 20 10 20 6 0 10 9 10 21 0 19 21 49 35 49 10 0 35
28 35 39 0 6 9 11 20 11 11 0 20 5 20 10 0 6 11 10 25 10 14 0 25 -4 25 -10z"/>
</g>
</svg>
